<svg width="60" height="51" viewBox="0 0 60 51" fill="none" xmlns="http://www.w3.org/2000/svg">
<g id="Group 3">
<path id="Rectangle 9" d="M23.3806 9.97955L26.8267 15.6529L6.52767 47.1016L2.26721e-05 47.1236L23.3806 9.97955Z" fill="#0A58B4"/>
<path id="Rectangle 10" d="M26.5801 5.04204L29.8907 7.06285e-06L60 47.1929L53.1895 47.1929L26.5801 5.04204Z" fill="#0A58B4"/>
<path id="Rectangle 12" d="M20.218 15.5112L24.1867 11.5007L39.7556 36.8447L33.5458 36.8447L20.218 15.5112Z" fill="#0A58B4"/>
<path id="Rectangle 11" d="M19.8631 36.3016L23.2216 30.8764L33.8137 47.2723L26.9758 47.2723L19.8631 36.3016Z" fill="#0A58B4"/>
<path id="Rectangle 13" d="M32.1629 47.1521L28.6469 41.576L53.4478 41.4685L54.4812 47.1521L32.1629 47.1521Z" fill="#0A58B4"/>
<path id="Rectangle 14" d="M3.0708 47.1521L4.62086 41.576H16.763L20.3798 47.1521H3.0708Z" fill="#0A58B4"/>
</g>
</svg>
